<svg width="243" height="23" viewBox="0 0 243 23" fill="none" xmlns="http://www.w3.org/2000/svg">
<path d="M15.1591 6H13.0455C12.9205 5.39205 12.7017 4.85795 12.3892 4.39773C12.0824 3.9375 11.7074 3.55114 11.2642 3.23864C10.8267 2.92045 10.3409 2.68182 9.80682 2.52273C9.27273 2.36364 8.71591 2.28409 8.13636 2.28409C7.07955 2.28409 6.12216 2.55114 5.2642 3.08523C4.41193 3.61932 3.73295 4.40625 3.22727 5.44602C2.72727 6.4858 2.47727 7.76136 2.47727 9.27273C2.47727 10.7841 2.72727 12.0597 3.22727 13.0994C3.73295 14.1392 4.41193 14.9261 5.2642 15.4602C6.12216 15.9943 7.07955 16.2614 8.13636 16.2614C8.71591 16.2614 9.27273 16.1818 9.80682 16.0227C10.3409 15.8636 10.8267 15.6278 11.2642 15.3153C11.7074 14.9972 12.0824 14.608 12.3892 14.1477C12.7017 13.6818 12.9205 13.1477 13.0455 12.5455H15.1591C15 13.4375 14.7102 14.2358 14.2898 14.9403C13.8693 15.6449 13.3466 16.2443 12.7216 16.7386C12.0966 17.2273 11.3949 17.5994 10.6165 17.8551C9.84375 18.1108 9.01705 18.2386 8.13636 18.2386C6.64773 18.2386 5.32386 17.875 4.16477 17.1477C3.00568 16.4205 2.09375 15.3864 1.42898 14.0455C0.764205 12.7045 0.431818 11.1136 0.431818 9.27273C0.431818 7.43182 0.764205 5.84091 1.42898 4.5C2.09375 3.15909 3.00568 2.125 4.16477 1.39773C5.32386 0.670454 6.64773 0.306818 8.13636 0.306818C9.01705 0.306818 9.84375 0.434659 10.6165 0.690341C11.3949 0.946023 12.0966 1.32102 12.7216 1.81534C13.3466 2.30398 13.8693 2.90057 14.2898 3.60511C14.7102 4.30398 15 5.10227 15.1591 6ZM23.62 18.2727C22.4382 18.2727 21.4013 17.9915 20.5092 17.429C19.6229 16.8665 18.9297 16.0795 18.4297 15.0682C17.9354 14.0568 17.6882 12.875 17.6882 11.5227C17.6882 10.1591 17.9354 8.96875 18.4297 7.9517C18.9297 6.93466 19.6229 6.14489 20.5092 5.58239C21.4013 5.01989 22.4382 4.73864 23.62 4.73864C24.8018 4.73864 25.8359 5.01989 26.7223 5.58239C27.6143 6.14489 28.3075 6.93466 28.8018 7.9517C29.3018 8.96875 29.5518 10.1591 29.5518 11.5227C29.5518 12.875 29.3018 14.0568 28.8018 15.0682C28.3075 16.0795 27.6143 16.8665 26.7223 17.429C25.8359 17.9915 24.8018 18.2727 23.62 18.2727ZM23.62 16.4659C24.5178 16.4659 25.2564 16.2358 25.8359 15.7756C26.4155 15.3153 26.8445 14.7102 27.1229 13.9602C27.4013 13.2102 27.5405 12.3977 27.5405 11.5227C27.5405 10.6477 27.4013 9.83239 27.1229 9.0767C26.8445 8.32102 26.4155 7.71023 25.8359 7.24432C25.2564 6.77841 24.5178 6.54545 23.62 6.54545C22.7223 6.54545 21.9837 6.77841 21.4041 7.24432C20.8246 7.71023 20.3956 8.32102 20.1172 9.0767C19.8388 9.83239 19.6996 10.6477 19.6996 11.5227C19.6996 12.3977 19.8388 13.2102 20.1172 13.9602C20.3956 14.7102 20.8246 15.3153 21.4041 15.7756C21.9837 16.2358 22.7223 16.4659 23.62 16.4659ZM42.3381 0L43.3608 1.22727C42.9631 1.61364 42.5028 1.88352 41.9801 2.03693C41.4574 2.19034 40.8665 2.28409 40.2074 2.31818C39.5483 2.35227 38.8153 2.38636 38.0085 2.42045C37.0994 2.45455 36.3466 2.67614 35.75 3.08523C35.1534 3.49432 34.6932 4.08523 34.3693 4.85795C34.0455 5.63068 33.8381 6.57955 33.7472 7.70455H33.9176C34.3608 6.88636 34.9744 6.28409 35.7585 5.89773C36.5426 5.51136 37.3835 5.31818 38.2812 5.31818C39.304 5.31818 40.2244 5.55682 41.0426 6.03409C41.8608 6.51136 42.5085 7.21875 42.9858 8.15625C43.4631 9.09375 43.7017 10.25 43.7017 11.625C43.7017 12.9943 43.4574 14.1761 42.9688 15.1705C42.4858 16.1648 41.8068 16.9318 40.9318 17.4716C40.0625 18.0057 39.0426 18.2727 37.8722 18.2727C36.7017 18.2727 35.6761 17.9972 34.7955 17.446C33.9148 16.8892 33.2301 16.0653 32.7415 14.9744C32.2528 13.8778 32.0085 12.5227 32.0085 10.9091V9.51136C32.0085 6.59659 32.5028 4.38636 33.4915 2.88068C34.4858 1.375 35.9801 0.59659 37.9744 0.545454C38.679 0.522727 39.3068 0.517045 39.858 0.528408C40.4091 0.539772 40.8892 0.514204 41.2983 0.451704C41.7074 0.389204 42.054 0.238636 42.3381 0ZM37.8722 16.4659C38.6619 16.4659 39.3409 16.267 39.9091 15.8693C40.483 15.4716 40.9233 14.9119 41.2301 14.1903C41.5369 13.4631 41.6903 12.608 41.6903 11.625C41.6903 10.6705 41.5341 9.85795 41.2216 9.1875C40.9148 8.51705 40.4744 8.00568 39.9006 7.65341C39.3267 7.30114 38.6392 7.125 37.8381 7.125C37.2528 7.125 36.7273 7.22443 36.2614 7.4233C35.7955 7.62216 35.3977 7.91477 35.0682 8.30114C34.7386 8.6875 34.483 9.15909 34.3011 9.71591C34.125 10.2727 34.0312 10.9091 34.0199 11.625C34.0199 13.0909 34.3636 14.2642 35.0511 15.1449C35.7386 16.0256 36.679 16.4659 37.8722 16.4659ZM48.517 9.64773H52.267C53.8011 9.64773 54.9744 10.0369 55.7869 10.8153C56.5994 11.5937 57.0057 12.5795 57.0057 13.7727C57.0057 14.5568 56.8239 15.2699 56.4602 15.9119C56.0966 16.5483 55.5625 17.0568 54.858 17.4375C54.1534 17.8125 53.2898 18 52.267 18H46.7784V4.90909H48.7898V16.125H52.267C53.0625 16.125 53.7159 15.9148 54.2273 15.4943C54.7386 15.0739 54.9943 14.5341 54.9943 13.875C54.9943 13.1818 54.7386 12.6165 54.2273 12.179C53.7159 11.7415 53.0625 11.5227 52.267 11.5227H48.517V9.64773ZM59.0852 18V4.90909H61.0966V18H59.0852ZM64.0284 6.78409V4.90909H74.6648V6.78409H70.3693V18H68.358V6.78409H64.0284ZM79.6101 15.0341L85.9169 4.90909H88.2351V18H86.2237V7.875L79.951 18H77.5987V4.90909H79.6101V15.0341ZM99.794 18V6.75H96.3168C95.5327 6.75 94.9162 6.93182 94.4673 7.29545C94.0185 7.65909 93.794 8.15909 93.794 8.79545C93.794 9.42045 93.9957 9.91193 94.3991 10.2699C94.8082 10.6278 95.3679 10.8068 96.0781 10.8068H100.305V12.6818H96.0781C95.1918 12.6818 94.4276 12.5256 93.7855 12.2131C93.1435 11.9006 92.6491 11.4545 92.3026 10.875C91.956 10.2898 91.7827 9.59659 91.7827 8.79545C91.7827 7.98864 91.9645 7.29545 92.3281 6.71591C92.6918 6.13636 93.2116 5.69034 93.8878 5.37784C94.5696 5.06534 95.3793 4.90909 96.3168 4.90909H101.703V18H99.794ZM91.0668 18L94.7827 11.4886H96.9645L93.2486 18H91.0668ZM115.93 18L109.93 9.98864H107.782V18H105.668V0.545454H107.782V8.11364H108.702L115.691 0.545454H118.214L111.157 8.21591L118.452 18H115.93ZM120.911 22.9091V4.90909H122.854V6.98864H123.093C123.241 6.76136 123.445 6.47159 123.707 6.11932C123.974 5.76136 124.354 5.44318 124.849 5.16477C125.349 4.88068 126.025 4.73864 126.877 4.73864C127.979 4.73864 128.951 5.0142 129.792 5.56534C130.633 6.11648 131.289 6.89773 131.761 7.90909C132.232 8.92045 132.468 10.1136 132.468 11.4886C132.468 12.875 132.232 14.0767 131.761 15.0938C131.289 16.1051 130.636 16.8892 129.8 17.446C128.965 17.9972 128.002 18.2727 126.911 18.2727C126.07 18.2727 125.397 18.1335 124.891 17.8551C124.386 17.571 123.996 17.25 123.724 16.892C123.451 16.5284 123.241 16.2273 123.093 15.9886H122.923V22.9091H120.911ZM122.888 11.4545C122.888 12.4432 123.033 13.3153 123.323 14.071C123.613 14.821 124.036 15.4091 124.593 15.8352C125.15 16.2557 125.832 16.4659 126.638 16.4659C127.479 16.4659 128.181 16.2443 128.744 15.8011C129.312 15.3523 129.738 14.75 130.022 13.9943C130.312 13.233 130.457 12.3864 130.457 11.4545C130.457 10.5341 130.315 9.70455 130.031 8.96591C129.752 8.22159 129.329 7.63352 128.761 7.2017C128.198 6.7642 127.491 6.54545 126.638 6.54545C125.82 6.54545 125.133 6.75284 124.576 7.16761C124.019 7.5767 123.599 8.15057 123.315 8.8892C123.031 9.62216 122.888 10.4773 122.888 11.4545ZM139.388 18.3068C138.559 18.3068 137.806 18.1506 137.13 17.8381C136.454 17.5199 135.917 17.0625 135.519 16.4659C135.121 15.8636 134.923 15.1364 134.923 14.2841C134.923 13.5341 135.07 12.9261 135.366 12.4602C135.661 11.9886 136.056 11.6193 136.55 11.3523C137.045 11.0852 137.59 10.8864 138.187 10.7557C138.789 10.6193 139.394 10.5114 140.002 10.4318C140.798 10.3295 141.442 10.2528 141.937 10.2017C142.437 10.1449 142.8 10.0511 143.028 9.92045C143.261 9.78977 143.377 9.5625 143.377 9.23864V9.17045C143.377 8.32955 143.147 7.67614 142.687 7.21023C142.232 6.74432 141.542 6.51136 140.616 6.51136C139.656 6.51136 138.903 6.72159 138.357 7.14205C137.812 7.5625 137.428 8.01136 137.207 8.48864L135.298 7.80682C135.638 7.01136 136.093 6.39205 136.661 5.94886C137.235 5.5 137.86 5.1875 138.536 5.01136C139.218 4.82955 139.888 4.73864 140.548 4.73864C140.968 4.73864 141.451 4.78977 141.996 4.89204C142.548 4.98864 143.079 5.19034 143.59 5.49716C144.107 5.80398 144.536 6.26705 144.877 6.88636C145.218 7.50568 145.388 8.33523 145.388 9.375V18H143.377V16.2273H143.275C143.138 16.5114 142.911 16.8153 142.593 17.1392C142.275 17.4631 141.852 17.7386 141.323 17.9659C140.795 18.1932 140.15 18.3068 139.388 18.3068ZM139.695 16.5C140.491 16.5 141.161 16.3438 141.707 16.0312C142.258 15.7188 142.673 15.3153 142.951 14.821C143.235 14.3267 143.377 13.8068 143.377 13.2614V11.4205C143.292 11.5227 143.104 11.6165 142.815 11.7017C142.531 11.7812 142.201 11.8523 141.826 11.9148C141.457 11.9716 141.096 12.0227 140.744 12.0682C140.397 12.108 140.116 12.142 139.9 12.1705C139.377 12.2386 138.888 12.3494 138.434 12.5028C137.985 12.6506 137.621 12.875 137.343 13.1761C137.07 13.4716 136.934 13.875 136.934 14.3864C136.934 15.0852 137.192 15.6136 137.71 15.9716C138.232 16.3239 138.894 16.5 139.695 16.5ZM154.378 18.2727C153.151 18.2727 152.094 17.983 151.207 17.4034C150.321 16.8239 149.639 16.0256 149.162 15.0085C148.685 13.9915 148.446 12.8295 148.446 11.5227C148.446 10.1932 148.69 9.01989 149.179 8.00284C149.673 6.98011 150.361 6.18182 151.241 5.60795C152.128 5.02841 153.162 4.73864 154.344 4.73864C155.264 4.73864 156.094 4.90909 156.832 5.25C157.571 5.59091 158.176 6.06818 158.648 6.68182C159.119 7.29545 159.412 8.01136 159.526 8.82955H157.514C157.361 8.23295 157.02 7.70455 156.491 7.24432C155.969 6.77841 155.264 6.54545 154.378 6.54545C153.594 6.54545 152.906 6.75 152.315 7.15909C151.73 7.5625 151.273 8.13352 150.943 8.87216C150.619 9.60511 150.457 10.4659 150.457 11.4545C150.457 12.4659 150.616 13.3466 150.935 14.0966C151.259 14.8466 151.713 15.429 152.298 15.8438C152.889 16.2585 153.582 16.4659 154.378 16.4659C154.901 16.4659 155.375 16.375 155.801 16.1932C156.227 16.0114 156.588 15.75 156.884 15.4091C157.179 15.0682 157.389 14.6591 157.514 14.1818H159.526C159.412 14.9545 159.131 15.6506 158.682 16.2699C158.239 16.8835 157.651 17.3722 156.918 17.7358C156.19 18.0938 155.344 18.2727 154.378 18.2727ZM171.227 10.5341V12.4091H164V10.5341H171.227ZM164.477 4.90909V18H162.466V4.90909H164.477ZM172.761 4.90909V18H170.75V4.90909H172.761ZM181.753 18.2727C180.571 18.2727 179.534 17.9915 178.642 17.429C177.756 16.8665 177.062 16.0795 176.562 15.0682C176.068 14.0568 175.821 12.875 175.821 11.5227C175.821 10.1591 176.068 8.96875 176.562 7.9517C177.062 6.93466 177.756 6.14489 178.642 5.58239C179.534 5.01989 180.571 4.73864 181.753 4.73864C182.935 4.73864 183.969 5.01989 184.855 5.58239C185.747 6.14489 186.44 6.93466 186.935 7.9517C187.435 8.96875 187.685 10.1591 187.685 11.5227C187.685 12.875 187.435 14.0568 186.935 15.0682C186.44 16.0795 185.747 16.8665 184.855 17.429C183.969 17.9915 182.935 18.2727 181.753 18.2727ZM181.753 16.4659C182.651 16.4659 183.389 16.2358 183.969 15.7756C184.548 15.3153 184.977 14.7102 185.256 13.9602C185.534 13.2102 185.673 12.3977 185.673 11.5227C185.673 10.6477 185.534 9.83239 185.256 9.0767C184.977 8.32102 184.548 7.71023 183.969 7.24432C183.389 6.77841 182.651 6.54545 181.753 6.54545C180.855 6.54545 180.116 6.77841 179.537 7.24432C178.957 7.71023 178.528 8.32102 178.25 9.0767C177.972 9.83239 177.832 10.6477 177.832 11.5227C177.832 12.3977 177.972 13.2102 178.25 13.9602C178.528 14.7102 178.957 15.3153 179.537 15.7756C180.116 16.2358 180.855 16.4659 181.753 16.4659ZM198.63 18V6.75H195.153C194.369 6.75 193.752 6.93182 193.303 7.29545C192.854 7.65909 192.63 8.15909 192.63 8.79545C192.63 9.42045 192.832 9.91193 193.235 10.2699C193.644 10.6278 194.204 10.8068 194.914 10.8068H199.141V12.6818H194.914C194.028 12.6818 193.263 12.5256 192.621 12.2131C191.979 11.9006 191.485 11.4545 191.138 10.875C190.792 10.2898 190.619 9.59659 190.619 8.79545C190.619 7.98864 190.8 7.29545 191.164 6.71591C191.528 6.13636 192.048 5.69034 192.724 5.37784C193.406 5.06534 194.215 4.90909 195.153 4.90909H200.539V18H198.63ZM189.903 18L193.619 11.4886H195.8L192.085 18H189.903ZM204.232 22.9091V4.90909H206.175V6.98864H206.413C206.561 6.76136 206.766 6.47159 207.027 6.11932C207.294 5.76136 207.675 5.44318 208.169 5.16477C208.669 4.88068 209.345 4.73864 210.197 4.73864C211.3 4.73864 212.271 5.0142 213.112 5.56534C213.953 6.11648 214.609 6.89773 215.081 7.90909C215.553 8.92045 215.788 10.1136 215.788 11.4886C215.788 12.875 215.553 14.0767 215.081 15.0938C214.609 16.1051 213.956 16.8892 213.121 17.446C212.286 17.9972 211.322 18.2727 210.232 18.2727C209.391 18.2727 208.717 18.1335 208.212 17.8551C207.706 17.571 207.317 17.25 207.044 16.892C206.771 16.5284 206.561 16.2273 206.413 15.9886H206.243V22.9091H204.232ZM206.209 11.4545C206.209 12.4432 206.354 13.3153 206.643 14.071C206.933 14.821 207.357 15.4091 207.913 15.8352C208.47 16.2557 209.152 16.4659 209.959 16.4659C210.8 16.4659 211.501 16.2443 212.064 15.8011C212.632 15.3523 213.058 14.75 213.342 13.9943C213.632 13.233 213.777 12.3864 213.777 11.4545C213.777 10.5341 213.635 9.70455 213.351 8.96591C213.072 8.22159 212.649 7.63352 212.081 7.2017C211.518 6.7642 210.811 6.54545 209.959 6.54545C209.141 6.54545 208.453 6.75284 207.896 7.16761C207.339 7.5767 206.919 8.15057 206.635 8.8892C206.351 9.62216 206.209 10.4773 206.209 11.4545ZM224.175 18.2727C222.947 18.2727 221.891 17.983 221.004 17.4034C220.118 16.8239 219.436 16.0256 218.959 15.0085C218.482 13.9915 218.243 12.8295 218.243 11.5227C218.243 10.1932 218.487 9.01989 218.976 8.00284C219.47 6.98011 220.158 6.18182 221.038 5.60795C221.925 5.02841 222.959 4.73864 224.141 4.73864C225.061 4.73864 225.891 4.90909 226.629 5.25C227.368 5.59091 227.973 6.06818 228.445 6.68182C228.916 7.29545 229.209 8.01136 229.322 8.82955H227.311C227.158 8.23295 226.817 7.70455 226.288 7.24432C225.766 6.77841 225.061 6.54545 224.175 6.54545C223.391 6.54545 222.703 6.75 222.112 7.15909C221.527 7.5625 221.07 8.13352 220.74 8.87216C220.416 9.60511 220.254 10.4659 220.254 11.4545C220.254 12.4659 220.413 13.3466 220.732 14.0966C221.055 14.8466 221.51 15.429 222.095 15.8438C222.686 16.2585 223.379 16.4659 224.175 16.4659C224.697 16.4659 225.172 16.375 225.598 16.1932C226.024 16.0114 226.385 15.75 226.68 15.4091C226.976 15.0682 227.186 14.6591 227.311 14.1818H229.322C229.209 14.9545 228.928 15.6506 228.479 16.2699C228.036 16.8835 227.447 17.3722 226.714 17.7358C225.987 18.0938 225.141 18.2727 224.175 18.2727ZM232.263 18V4.90909H234.274V10.6023H235.604L240.308 4.90909H242.899L237.615 11.2159L242.967 18H240.376L236.081 12.4773H234.274V18H232.263Z" fill="black"/>
</svg>
